<svg width="42" height="48" viewBox="0 0 42 48" fill="none" xmlns="http://www.w3.org/2000/svg">
<g clip-path="url(#clip0_1_415)">
<path d="M21.3763 0C21.9828 0.1275 22.8744 0.90375 22.8744 1.5475V7.4075C23.7372 6.80875 24.8826 5.0275 25.9242 4.885C27.7899 4.63 28.8315 6.5425 27.6961 7.97125L22.8744 12.7987V20.7213L29.7506 16.78L31.5337 10.1287C32.3915 8.00625 35.4401 8.775 35.1275 11.1975C35.0775 11.59 34.286 13.955 34.3872 14.0638L39.5091 11.1788C41.6373 10.4925 43.1016 13.205 40.8733 14.7013C39.4353 15.6663 37.6847 16.375 36.2592 17.3925C37.2583 17.79 39.2915 17.8888 40.0017 18.705C41.1497 20.0225 40.0368 21.95 38.3762 21.8375L31.6325 20.0637L24.8976 23.8988L24.8388 24.0925L31.6313 27.9375L38.3737 26.1663C40.0243 26.03 41.1472 27.98 40.0005 29.2975C39.289 30.1138 37.257 30.2125 36.2579 30.61L41.2097 33.525C42.784 34.66 41.8261 37.1813 39.8692 36.93C39.5678 36.8913 39.2715 36.7113 39.0026 36.5788C37.4283 35.805 35.9853 34.6788 34.386 33.9388C34.286 34.0475 35.0762 36.4125 35.1263 36.805C35.4389 39.2275 32.389 39.9963 31.5325 37.8737L29.7493 31.2225L22.8731 27.2812V35.2038L27.6948 40.0312C28.8303 41.46 27.7899 43.3713 25.923 43.1175C25.0777 43.0025 23.7697 41.32 23.0782 40.7012C23.0369 40.6637 23.087 40.5288 22.8731 40.595V46.455C22.8731 47.0975 21.9816 47.8737 21.3751 48.0025H20.6261C20.0196 47.875 19.128 47.0988 19.128 46.455V40.595C18.2652 41.1938 17.1198 42.975 16.0782 43.1175C14.2125 43.3725 13.1709 41.46 14.3063 40.0312L19.128 35.2038V27.2812L12.2268 31.2437L10.4687 37.8737C9.61089 39.9963 6.5623 39.2275 6.87491 36.805C6.92618 36.4075 7.71271 34.0625 7.61518 33.9375L2.49335 36.8225C0.341331 37.5162 -0.945379 34.7513 0.846511 33.485L5.74326 30.6087C4.74415 30.1912 2.71343 30.115 2.00067 29.2962C0.854014 27.98 1.97441 26.03 3.6275 26.165L10.3687 27.9363L17.1048 24.1012L17.1636 23.9075L10.3687 20.0637L3.62625 21.8363C1.96816 21.9487 0.852763 20.0212 2.00067 18.7038C2.71343 17.885 4.74415 17.8088 5.74326 17.3913L0.790241 14.4788C-0.78032 13.3288 0.165018 10.82 2.13322 11.0712C2.43458 11.11 2.73093 11.29 2.99978 11.4225C4.55659 12.1875 6.03586 13.315 7.61643 14.0638C7.71396 13.9388 6.92743 11.595 6.87616 11.1962C6.56355 8.77375 9.61339 8.005 10.4699 10.1275L12.2281 16.7575L19.1293 20.72V12.7975L14.3076 7.97C13.1722 6.54125 14.2138 4.62875 16.0795 4.88375C17.1211 5.02625 18.2665 6.8075 19.1293 7.40625V1.5475C19.1293 0.905 20.0209 0.12875 20.6273 0H21.3763Z" fill="#FF272B"/>
</g>
<defs>
<clipPath id="clip0_1_415">
<rect width="42" height="48" fill="white"/>
</clipPath>
</defs>
</svg>
