<svg width="34" height="35" viewBox="0 0 34 35" fill="none" xmlns="http://www.w3.org/2000/svg">
<g clip-path="url(#clip0_128_31)">
<path d="M17.3236 0L33.5371 7.90196L33.617 8.2325V26.762C33.6271 26.9903 33.527 27.1857 33.3185 27.2852C28.4243 29.5616 23.6108 32.0133 18.723 34.3015C18.42 34.443 17.308 35.0091 17.0848 35L0.916313 27.2852C0.70787 27.1857 0.607781 26.9903 0.617882 26.762V8.2325L0.69777 7.90196L16.9113 0H17.3236ZM31.8953 8.1348L17.1399 1.10942L12.9242 3.07714L13.0124 3.22872L27.6116 10.2368L31.8943 8.1348H31.8953ZM26.3959 10.7317L11.7728 3.77019C10.68 4.0222 9.74343 4.79194 8.66357 5.12705L23.3537 12.2218L26.3086 10.8841L26.3968 10.7317H26.3959ZM32.5821 9.02233L27.8733 11.2768L27.7879 17.6849C27.686 17.9214 26.3986 18.4903 26.0772 18.6491C25.4225 18.9733 24.3463 19.5604 23.6971 19.7677C23.3234 19.8864 23.1214 19.806 22.9616 19.4435L22.9644 13.3577L22.8505 13.1295L7.51209 5.75252L2.3396 8.20054L13.4532 13.5193C14.1042 13.9028 13.6607 14.7438 12.9435 14.4361L1.65183 9.02233V26.5201L16.5669 33.6285V16.1308C16.106 15.8751 14.5909 15.5154 15.039 14.7831C15.4568 14.1019 16.6211 15.2743 17.2024 15.2314L20.9892 13.4856C21.4713 13.5632 21.6797 14.0973 21.2766 14.4242L17.6661 16.1308V33.6285L32.5812 26.5201V9.02233H32.5821ZM26.8091 11.8246L23.991 13.1578V18.4546L26.8091 17.1562V11.8246Z" fill="white"/>
<path d="M3.14383 20.9293C3.29626 20.8836 3.47991 20.9046 3.62591 20.9686C4.88942 21.7684 6.88845 22.2798 8.06656 23.1134C8.64689 23.5243 8.30163 24.2101 7.62947 24.0265L3.0015 21.7931C2.6792 21.6041 2.8353 21.0206 3.14383 20.9284V20.9293Z" fill="white"/>
<path d="M3.28345 23.3216C3.43864 23.307 3.55526 23.3819 3.69116 23.433C4.12457 23.5946 5.57448 24.2603 5.90781 24.5086C6.43672 24.9022 6.18787 25.5149 5.56714 25.4683L3.09797 24.295C2.66915 24.0375 2.74995 23.3718 3.28254 23.3225L3.28345 23.3216Z" fill="white"/>
</g>
<defs>
<clipPath id="clip0_128_31">
<rect width="33" height="35" fill="white" transform="translate(0.616821)"/>
</clipPath>
</defs>
</svg>
