<svg width="39" height="50" viewBox="0 0 39 50" fill="none" xmlns="http://www.w3.org/2000/svg">
<g clip-path="url(#clip0_1_407)">
<path d="M12.2895 50C11.4951 49.2638 11.2902 47.9871 10.6727 47.0796C10.1029 46.2419 8.98283 45.6341 7.95545 45.7038C7.15014 45.7589 5.07099 46.6907 4.49752 46.4339C4.20102 46.3006 4.12659 45.8885 4.24982 45.6035L7.4198 38.4787C7.68336 38.4506 7.7285 38.7649 7.90176 38.9214C9.86622 40.7008 12.6287 41.3086 15.0836 40.1553C16.2037 39.6295 16.9627 38.5288 18.1828 38.184L13.2497 49.2528L12.6787 49.9988H12.2895V50Z" fill="#FF272B"/>
<path d="M26.3189 50L25.7478 49.254L20.8147 38.1852C22.0349 38.5301 22.7926 39.6307 23.9139 40.1566C26.3701 41.3098 29.1313 40.702 31.0958 38.9226C31.2691 38.7661 31.3142 38.4506 31.5778 38.4799L34.7477 45.6048C34.8698 45.8897 34.7966 46.3019 34.5001 46.4352C33.9266 46.692 31.8474 45.7601 31.0421 45.7051C30.0147 45.6353 28.8946 46.2432 28.3248 47.0809C27.7086 47.9883 27.5024 49.265 26.7081 50.0012H26.3189V50Z" fill="#FF272B"/>
<path d="M37.8774 20.741C39.8529 22.7088 39.122 26.2944 36.473 27.2226C34.4744 27.9222 33.3702 27.7522 31.8218 29.5915C30.1526 31.5739 30.5687 32.8152 30.3027 35.0996C30.1404 36.4889 28.9202 37.773 27.6061 38.1582C24.3263 39.1182 23.3344 35.897 20.0387 35.6438C17.2872 35.4323 16.6222 36.517 14.62 37.7387C12.32 39.1402 9.01455 37.8378 8.69608 35.1008C8.43375 32.8445 8.84738 31.6203 7.22091 29.6465C5.58223 27.6556 4.43284 27.9747 2.38297 27.1725C0.333102 26.3702 -0.452681 24.098 0.230609 22.145C0.757718 20.6371 2.01204 20.3008 2.93326 19.1904C4.36573 17.4648 4.81475 15.0177 4.05215 12.8995C3.84351 12.3186 3.43475 11.7549 3.25417 11.1605C2.41226 8.39299 4.59268 5.78201 7.45396 6.07185C9.51969 6.28097 10.3238 6.87165 12.5176 5.94833C14.9543 4.92351 15.0275 3.59661 16.2794 1.71206C17.7985 -0.572397 21.1979 -0.569951 22.7145 1.71206C23.9798 3.61618 24.0664 4.96876 26.5434 5.98013C28.7043 6.86187 29.5169 6.2773 31.5412 6.07185C34.4037 5.78201 36.5829 8.39422 35.7409 11.1605C35.0723 13.3594 34.1657 13.7776 34.7429 16.5097C35.2578 18.9458 36.3791 19.2515 37.8762 20.741H37.8774ZM32.3086 19.9547C32.3086 12.8641 26.5739 7.11502 19.4982 7.11502C12.4225 7.11502 6.6877 12.8628 6.6877 19.9547C6.6877 27.0465 12.4225 32.7944 19.4982 32.7944C26.5739 32.7944 32.3086 27.0465 32.3086 19.9547Z" fill="#FF272B"/>
<path d="M29.9232 19.956C29.9232 25.7259 25.2561 30.4036 19.4994 30.4036C13.7427 30.4036 9.07556 25.7259 9.07556 19.956C9.07556 14.1862 13.7427 9.50842 19.4994 9.50842C25.2561 9.50842 29.9232 14.1862 29.9232 19.956ZM16.5466 19.0779C15.6339 18.2953 14.3113 19.0633 14.5516 20.2446C14.6188 20.5712 16.3111 22.9987 16.6235 23.3436C17.2994 24.0896 17.6923 24.0614 18.5159 23.5784C20.5988 22.3579 22.6206 20.3364 24.707 19.0425C26.0029 18.1461 25.0926 16.3716 23.6333 16.8925L17.8924 21.0004C17.7753 21.0029 16.8053 19.2981 16.5454 19.0755L16.5466 19.0779Z" fill="#FF272B"/>
</g>
<defs>
<clipPath id="clip0_1_407">
<rect width="39" height="50" fill="white"/>
</clipPath>
</defs>
</svg>
