<svg width="40" height="48" viewBox="0 0 40 48" fill="none" xmlns="http://www.w3.org/2000/svg">
<g clip-path="url(#clip0_1_420)">
<path d="M20.2756 47.9999H19.7188C14.0027 46.0318 8.68993 42.8522 5.15785 37.8116C-0.339128 29.9689 -0.195388 19.8806 0.131165 10.6503C0.163262 9.72331 -0.0893283 8.34975 0.459114 7.60591C1.16665 6.64653 2.58171 7.01423 3.60882 6.94238C8.66621 6.59159 13.1905 5.18844 17.1636 1.9722C17.9158 1.3636 18.9792 0.0238521 19.9504 -9.71464e-05C21.0124 -0.026864 22.0354 1.32697 22.8308 1.97361C26.7871 5.18985 31.3463 6.59441 36.3856 6.94379C37.4127 7.01563 38.8277 6.64794 39.5353 7.60732C40.0809 8.34693 39.8283 9.64301 39.8632 10.5573C40.1995 19.7214 40.3321 29.9605 34.8728 37.7581C31.3505 42.7874 25.9791 46.0431 20.2742 48.0013L20.2756 47.9999ZM26.7425 16.6052L17.7036 25.3058L17.391 25.1819L13.4515 20.7245L10.8991 23.0194L16.4226 29.1589C17.225 29.7421 17.9465 29.5815 18.6987 29.0208L29.0549 19.1283C29.1163 19.0579 29.0912 19.0142 29.0549 18.9424C29.0186 18.8705 28.0906 17.883 27.937 17.7224C27.7835 17.5618 26.8667 16.5841 26.7411 16.6052H26.7425Z" fill="#FF272B"/>
</g>
<defs>
<clipPath id="clip0_1_420">
<rect width="40" height="48" fill="white"/>
</clipPath>
</defs>
</svg>
