<svg width="55" height="36" viewBox="0 0 55 36" fill="none" xmlns="http://www.w3.org/2000/svg">
<g clip-path="url(#clip0_1_396)">
<path d="M0 24.3035V23.6285C0.237897 23.3645 0.462895 22.9505 0.826906 22.865C1.89887 22.6116 5.69232 23.582 5.09902 21.2631C4.60173 19.3237 0.798244 21.3801 0 19.5787V18.9037C0.415603 17.8718 1.33136 17.9693 2.25285 18.0038V3.32236C2.25285 1.76693 3.94679 0.0674972 5.4186 0.00449981L32.2393 0C34.078 0.166493 35.3692 1.63943 35.5054 3.54885L35.4982 24.011C35.4108 24.5735 35.1815 24.968 34.6527 25.1495L1.22961 25.2065C0.60764 25.217 0.252228 24.8495 0 24.302L0 24.3035Z" fill="#FF272B"/>
<path d="M37.7611 8.15969C37.8686 7.52971 38.4476 7.25222 38.9907 7.19973C40.8108 7.02273 44.4609 7.03473 46.2881 7.20573C48.5524 7.41872 49.5026 8.95465 50.404 10.8761C51.6981 13.6315 53.6185 17.6558 54.5486 20.4802C54.7435 21.0726 54.8882 21.7011 54.9298 22.3296C55.0187 23.6615 55.086 27.6589 54.7406 28.7778C53.8406 31.6937 50.9157 31.1672 48.6012 31.1597C48.0451 25.5545 41.5546 23.2086 37.7611 27.2284V8.15969ZM41.3769 12.0655C40.9641 12.2185 40.7062 12.5335 40.6546 12.9955C40.5342 14.0784 40.5327 17.0933 40.6546 18.1748C40.7391 18.9202 41.3382 19.1842 41.9931 19.2457C43.7573 19.4092 47.2096 19.4092 48.9752 19.2457C49.9411 19.1557 50.5273 18.6217 50.2607 17.5493C50.093 16.8758 48.6771 13.693 48.2945 13.0885C47.9477 12.5425 47.3472 12.1135 46.7181 12.0415C45.0585 11.8525 43.0708 12.1615 41.3769 12.0655Z" fill="#FF272B"/>
<path d="M34.4879 27.5658C35.9052 27.8283 35.8336 30.8702 34.6799 31.1416L19.1421 31.1701L18.8196 31.0592L18.3954 29.2547L17.4854 27.5658H34.4879Z" fill="#FF272B"/>
<path d="M12.5885 36C14.7999 36 16.5926 34.1204 16.5926 31.8017C16.5926 29.483 14.7999 27.6034 12.5885 27.6034C10.3771 27.6034 8.58435 29.483 8.58435 31.8017C8.58435 34.1204 10.3771 36 12.5885 36Z" fill="#FF272B"/>
<path d="M42.3356 36C44.547 36 46.3397 34.1204 46.3397 31.8017C46.3397 29.483 44.547 27.6034 42.3356 27.6034C40.1242 27.6034 38.3315 29.483 38.3315 31.8017C38.3315 34.1204 40.1242 36 42.3356 36Z" fill="#FF272B"/>
<path d="M7.72304 27.5658C6.9205 28.6188 6.50346 29.8592 6.26557 31.1716C4.58309 31.3801 2.99807 30.4532 2.46065 28.7522C2.39903 28.5573 2.12387 27.5658 2.41336 27.5658H7.72304Z" fill="#FF272B"/>
</g>
<defs>
<clipPath id="clip0_1_396">
<rect width="55" height="36" fill="white"/>
</clipPath>
</defs>
</svg>
