<svg width="33" height="28" viewBox="0 0 33 28" fill="none" xmlns="http://www.w3.org/2000/svg">
<g clip-path="url(#clip0_128_56)">
<path d="M32.7445 24.0042C32.4671 26.1568 31.0431 27.6389 28.8997 27.9192C20.7859 28.0217 12.6472 28.0343 4.53545 27.913C2.37659 27.6149 0.922515 26.0334 0.747612 23.8453L0.744507 8.49495C0.914235 5.94074 2.61462 4.44399 5.0881 4.29442C6.91372 4.1846 8.848 4.38228 10.684 4.29756V1.99229C10.684 1.91908 10.7543 1.48919 10.7771 1.39087C10.9199 0.782133 11.6082 0.105405 12.2322 0.0185913L21.1564 -0.00128174C22.1023 0.143059 22.8092 1.03525 22.8092 1.99125V4.29651C24.6069 4.37391 26.4884 4.19297 28.2767 4.29651C30.6519 4.43458 32.5148 5.75247 32.7455 8.2753V24.0022L32.7445 24.0042ZM12.0583 1.67642V4.29756H21.4948V1.99229C21.4948 1.9013 21.381 1.52162 21.3096 1.43899C21.2247 1.34067 21.0301 1.27896 20.9029 1.26431H12.5882C12.4009 1.24444 12.0925 1.5143 12.0583 1.67642ZM5.04671 5.64369C3.26456 5.79849 2.21514 6.72416 2.0599 8.56293L2.0568 23.6601C2.18099 25.3567 3.14451 26.4319 4.83765 26.5971H28.5913C30.3238 26.4748 31.308 25.387 31.4343 23.6601V8.6215C31.3029 6.67291 30.1468 5.74201 28.2788 5.62173L5.04671 5.64369Z" fill="white"/>
<path d="M19.6837 13.0149H22.5898C22.6798 13.0149 23.01 13.246 23.0855 13.3349C23.2625 13.542 23.2904 13.7303 23.3111 13.9918C23.4136 15.3076 23.2335 16.7635 23.3029 18.094C23.3463 18.3659 22.7771 18.8889 22.5898 18.8889H19.6837V21.6366C19.6837 21.6575 19.5926 21.9859 19.574 22.0299C19.4074 22.4221 18.9893 22.5821 18.5929 22.6177C17.7298 22.6941 15.5554 22.7212 14.7326 22.5989C14.3207 22.5372 13.8105 22.147 13.8105 21.6994V18.8889H10.9044C10.8682 18.8889 10.4625 18.6243 10.4108 18.5667C10.3031 18.4496 10.2141 18.2519 10.1914 18.094C10.0092 16.7928 10.2938 15.0492 10.2141 13.7062C10.2317 13.4374 10.6633 13.0149 10.9055 13.0149H13.8115V10.2044C13.8115 10.1709 13.9337 9.84773 13.9637 9.7902C14.1541 9.43354 14.4573 9.31639 14.8403 9.28606C16.137 9.18251 17.5787 9.35613 18.891 9.30384C19.2542 9.353 19.6868 9.85296 19.6868 10.2054V13.0159L19.6837 13.0149ZM18.3083 10.6144H15.1207V13.8673C15.1207 13.9855 14.7192 14.3411 14.5898 14.3411H11.4964V17.5626H14.6529C14.7202 17.5626 15.1218 17.8942 15.1218 17.9737V21.1952L15.2159 21.2904H18.2783L18.3725 21.1952V17.9737C18.3725 17.8952 18.774 17.5626 18.8413 17.5626H21.9978V14.3411H18.9665C18.6622 14.3411 18.3104 13.9112 18.3104 13.6152V10.6155L18.3083 10.6144Z" fill="white"/>
</g>
<defs>
<clipPath id="clip0_128_56">
<rect width="32" height="28" fill="white" transform="translate(0.744507)"/>
</clipPath>
</defs>
</svg>
