<svg width="33" height="31" viewBox="0 0 33 31" fill="none" xmlns="http://www.w3.org/2000/svg">
<g clip-path="url(#clip0_128_85)">
<path d="M15.8985 0L15.8437 0.393279C12.9615 0.909338 10.6019 3.36589 10.1689 6.30877C9.56319 10.4257 12.52 14.3087 16.6447 14.4928L16.6372 15.2353C15.8117 15.4271 15.0909 16.2482 15.0475 17.1259C15.0229 17.6371 15.4126 18.1369 14.6729 18.2251C14.6607 18.1148 14.6295 17.9959 14.5644 17.9057C9.66414 11.1125 -0.104363 16.0794 2.01557 24.0198L1.69857 24.2644C-0.60911 19.1824 2.13539 12.9005 7.20361 10.9197C6.84416 5.58169 10.5972 0.588 15.8985 0Z" fill="white"/>
<path d="M19.3884 18.1292L18.929 17.9268C19.2564 17.0933 18.9327 16.0516 18.195 15.5566C17.8346 15.3139 17.1779 15.3226 17.3279 14.7461C17.4157 14.4084 18.4544 14.4324 18.8271 14.3451C20.2574 14.0094 21.7999 12.913 22.6754 11.7351C25.7813 7.56153 23.5538 1.48968 18.545 0.476749L18.5403 0.000976562C23.9972 0.575548 27.9965 6.04309 27.1351 11.5432C29.4551 12.8056 31.3052 14.6703 32.2222 17.218C32.9317 19.1882 33.2298 22.5157 32.225 24.4188C32.0486 24.7526 31.809 24.6586 31.7807 24.4159C31.7712 24.3315 32.0609 23.3944 32.0996 23.1411C32.8656 18.1043 28.405 13.9298 23.5208 15.0904C21.8924 15.478 20.1715 16.6185 19.3865 18.1312L19.3884 18.1292Z" fill="white"/>
<path d="M18.9158 18.6136C18.9771 18.6961 18.3827 20.2357 18.3195 20.5426C16.9779 27.0173 24.217 31.6638 29.4768 27.6658C29.6381 27.5439 30.2089 26.9013 30.2589 26.8773C30.4051 26.8092 30.5646 26.9454 30.7099 26.9559C30.741 27.1017 30.6948 27.1794 30.6212 27.2945C30.4278 27.5976 29.5513 28.4197 29.2456 28.6777C25.6114 31.7395 20.3111 31.7635 16.6053 28.8072C12.2682 31.8527 6.12256 30.9127 2.97426 26.6173C2.95822 26.5646 3.28937 26.4562 3.38466 26.483C3.44881 26.5013 4.15735 27.283 4.34415 27.4307C10.2096 32.0954 18.1148 25.5919 15.0533 18.8083L15.5486 18.6175C16.2364 19.2323 17.1279 19.4932 17.9799 19.0453C18.2233 18.9167 18.678 18.2913 18.9158 18.6127V18.6136Z" fill="white"/>
<path d="M26.2662 15.6468C26.9351 19.6256 25.0435 23.6515 21.5612 25.5661C21.2668 25.7282 20.5159 26.1896 20.2385 26.0476C19.9611 25.9056 19.0356 24.0668 19.0988 23.7551C21.0932 22.9819 22.7839 21.4117 23.4198 19.3024C23.7821 18.0986 23.7793 16.9791 23.6406 15.7379C24.535 15.5768 25.3614 15.4655 26.2662 15.6478V15.6468Z" fill="white"/>
<path d="M10.5124 15.6448C9.88788 19.0558 11.5408 22.3881 14.7608 23.6063C14.924 23.8327 13.8325 25.8989 13.5721 25.9852C13.2871 26.0801 12.2154 25.3876 11.9248 25.1929C8.81612 23.1018 7.13489 19.2054 7.89059 15.4549C8.76989 15.2784 9.64541 15.453 10.5124 15.6448Z" fill="white"/>
<path d="M16.9204 7.6977C18.6526 7.667 20.5687 8.21376 22.0235 9.16914C22.2131 9.29384 22.9717 9.75138 22.9358 9.98064C22.5679 10.749 22.1094 11.4828 21.4989 12.0765C18.928 9.99407 15.2608 9.82045 12.7381 12.0832C12.0446 11.4684 11.5257 10.6655 11.2219 9.78304C12.8352 8.51112 14.8608 7.73319 16.9204 7.6977Z" fill="white"/>
</g>
<defs>
<clipPath id="clip0_128_85">
<rect width="32" height="31" fill="white" transform="translate(0.872253)"/>
</clipPath>
</defs>
</svg>
